
<svg id="Layer_1" data-name="Layer 1" xmlns="http://www.w3.org/2000/svg" viewBox="0 0 201 125"><defs><style>.cls-1{fill:none;}</style></defs><path class="cls-1" d="M127.52,11.89c-.08-4.58,1.27-9.52,5.91-15.49,2.68-3.47,6.33-8.78,10.55-14.92,7.34-10.7,15.67-22.81,22.23-30.09,2.45-2.88,5.67-6.11,9.09-9.53,6.15-6.16,13.8-13.83,13.79-17.21,0-1.84-.73-2.25-1-2.39-1.3-.74-4.14-.19-6.62,1.28-3.52,1.91-30.67,21.65-35.28,25.15-3.46,2.62-6.28,3.39-7.95,2.18-.51-.38-1.62-1.5-.8-3.81,1.19-3.38,11.81-18.47,21.21-31,12.38-16.48,20.76-34.45,19.46-37a5.21,5.21,0,0,0-3.52-3.06,6.36,6.36,0,0,0-5.4,1.66c-4.33,3.58-24.3,30.43-29.4,38.1l-2.18,3.29c-7.48,11.32-15,22.52-17.05,24.48a2.21,2.21,0,0,1-2.84.46c-3.18-2,1.16-15.54,1.21-15.68.83-2.47,3.22-9.64,6.08-18.22,4.07-12.21,9.08-27.26,11.93-35.69,2.37-7.1,3-11.69,1.77-14-.57-1.15-1.62-1.89-3.62-2.55-3.81-1.37-8.72,1.56-10.76,5-2.07,3.83-20.7,55.35-23.23,63.18-1.82,5.64-4.62,9.32-7.49,9.83a3.26,3.26,0,0,1-3.25-1.18c-2.33-2.94,2.75-34.62,4.8-42.61,3.14-11.48,6-28.73,5.1-35.17-.56-4-3-6.53-5-7.21-.67-.22-1.24-.21-1.49,0-9,8.38-29.94,84.15-37.23,112.64l-.47,1.82-1.76-.67C36.74-43.1,9-53,4.81-53h0C2.72-53,.43-52.42,0-51.15s-.14,6,18.13,18.78C32.3-22.36,41.23-12.42,49.1-3.65c2,2.18,3.85,4.28,5.74,6.3a48.7,48.7,0,0,1,9.08,13.23C75.29,9.36,86.75,6,97.92,6A83.26,83.26,0,0,1,127.52,11.89Z"/><path class="cls-1" d="M133.73,25.46c2.69,11.72,2.23,28.22-7.93,36.16-6,4.46-16.21,7.78-26.18,8.5-1.36.09-2.7.14-4,.14-10.69,0-19.82-3.18-26-9.14-7.21-6.95-6.67-14.39-6.09-22.28.4-5.49.83-11.41-1.29-18C36.86,36.93,19.17,65,15.65,70.84A187.05,187.05,0,0,0,42.19,92.2c15.18,10.09,38.46,22.12,63.14,22.12s45.81-15,59.28-27.55a165.74,165.74,0,0,0,23-26.65c-4.48-5.14-27-30-56-42.9.28,1.25.62,2.53,1,3.85S133.38,23.94,133.73,25.46Z"/><path class="cls-1" d="M66.87,39.09c-.56,7.68-1,13.76,5.07,19.61,14.14,13.64,41.59,7.91,51.82.26,8.88-7,9.16-22,6.69-32.74-.34-1.48-.72-2.9-1.09-4.27a62.82,62.82,0,0,1-1.49-6.32A80.58,80.58,0,0,0,97.92,9.36c-11.77,0-22.8,3.87-32.74,9.67C67.78,26.59,67.3,33.26,66.87,39.09Z"/><path d="M129.36,22c.37,1.37.75,2.79,1.09,4.27C132.92,37,132.64,52,123.76,59c-10.23,7.65-37.68,13.38-51.82-.26-6.07-5.85-5.63-11.93-5.07-19.61.43-5.83.91-12.5-1.69-20.06-1,.58-2,1.18-3,1.79,2.12,6.61,1.69,12.53,1.29,18-.58,7.89-1.12,15.33,6.09,22.28,6.17,6,15.3,9.14,26,9.14,1.32,0,2.66-.05,4-.14,10-.72,20.23-4,26.18-8.5,10.16-7.94,10.62-24.44,7.93-36.16-.35-1.52-.75-3-1.13-4.39s-.7-2.6-1-3.85q-1.86-.82-3.75-1.59A62.82,62.82,0,0,0,129.36,22Z"/><path d="M127.87,15.63a25.74,25.74,0,0,1-.35-3.74A83.26,83.26,0,0,0,97.92,6c-11.17,0-22.63,3.36-34,9.88q.72,1.6,1.26,3.15c9.94-5.8,21-9.67,32.74-9.67A80.58,80.58,0,0,1,127.87,15.63Z"/><path d="M163.08,32.51A146.29,146.29,0,0,0,131,13.28a28.93,28.93,0,0,0,.66,3.94c28.93,12.93,51.5,37.76,56,42.9a165.74,165.74,0,0,1-23,26.65c-13.47,12.57-34.7,27.55-59.28,27.55s-48-12-63.14-22.12A187.05,187.05,0,0,1,15.65,70.84c3.52-5.86,21.21-33.91,46.58-50A32.12,32.12,0,0,0,61,17.6,126.47,126.47,0,0,0,36.27,38.24,185.09,185.09,0,0,0,12.08,70.29l-.61,1.08.86.91c.44.45,44.21,45.4,93,45.4,20.32,0,41.62-9.84,61.58-28.45a166.29,166.29,0,0,0,24.21-28.34l.66-1-.78-.94A195.21,195.21,0,0,0,163.08,32.51Z"/><path d="M65.18,19q-.54-1.55-1.26-3.15C63,16.43,62,17,61,17.6a32.12,32.12,0,0,1,1.21,3.22C63.2,20.21,64.19,19.61,65.18,19Z"/><path d="M127.87,15.63q1.89.76,3.75,1.59a28.93,28.93,0,0,1-.66-3.94c-1.14-.48-2.28-.95-3.44-1.39A25.74,25.74,0,0,0,127.87,15.63Z"/></svg>
