<svg id="Layer_1" data-name="Layer 1" xmlns="http://www.w3.org/2000/svg" viewBox="0 0 205 241"><path d="M105.6,231.58c-10.69,0-19.82-3.19-26-9.14-7.21-6.95-6.67-14.4-6.09-22.28.7-9.54,1.49-20.36-11.14-33.9-1.9-2-3.81-4.15-5.78-6.35-7.75-8.64-16.54-18.43-30.37-28.21C11.62,121.46,5.28,114.08,6.82,109.16c.83-2.63,3.81-4.2,8-4.2h0c5.66,0,40,12.73,49,16.11C67.5,106.79,90.64,18.72,101.5,8.66a4.62,4.62,0,0,1,4.88-.8c3.06,1,6.48,4.5,7.24,9.93,1.07,7.58-2.32,26.06-5.18,36.49-2.79,10.92-5.9,35.71-5.31,39.65.57-.16,2.88-1.6,4.81-7.58,2.63-8.13,21.27-59.66,23.5-63.79,2.77-4.76,9.2-8.6,14.79-6.58a8.78,8.78,0,0,1,5.53,4.23c1.64,3.27,1.15,8.39-1.6,16.61-2.84,8.43-7.86,23.48-11.92,35.68-2.86,8.59-5.25,15.76-6.08,18.22A53.05,53.05,0,0,0,130,100.3c3.61-4.83,10.93-15.89,14.81-21.76L147,75.25c4.63-7,25.21-34.83,30.06-38.84a9.61,9.61,0,0,1,8.29-2.34,8.53,8.53,0,0,1,5.79,4.86c3,5.84-11.64,29.66-19.8,40.5-11.44,15.22-19.46,27.12-20.64,29.85a11.18,11.18,0,0,0,3.47-2C158.07,104.39,186,84,189.86,81.93c2.72-1.61,7-2.94,9.93-1.27,1.21.69,2.66,2.17,2.66,5.3,0,4.78-7.17,12-14.77,19.59-3.37,3.37-6.55,6.56-8.94,9.37-6.45,7.15-14.71,19.17-22,29.78-4.25,6.19-7.92,11.53-10.66,15.08h0c-7.11,9.16-5.51,15.09-3.48,22.61.38,1.41.78,2.87,1.13,4.39,2.69,11.72,2.23,28.22-7.93,36.16-6,4.46-16.21,7.78-26.18,8.49Q107.58,231.58,105.6,231.58ZM14.81,108.32h0c-2.08,0-4.37.57-4.77,1.85s-.14,6,18.13,18.78c14.14,10,23.07,20,30.94,28.72,2,2.17,3.85,4.28,5.74,6.3,13.63,14.61,12.74,26.71,12,36.43-.56,7.69-1,13.76,5.07,19.62,14.14,13.64,41.59,7.91,51.82.25,8.88-7,9.16-22,6.69-32.74-.34-1.48-.72-2.89-1.09-4.27-2.1-7.74-4.08-15.06,4.07-25.54,2.68-3.47,6.33-8.78,10.55-14.93,7.34-10.69,15.67-22.81,22.23-30.08,2.45-2.88,5.67-6.11,9.09-9.54C191.45,97,199.1,89.35,199.09,86c0-1.85-.73-2.26-1-2.39-1.3-.74-4.14-.19-6.62,1.28C188,86.77,160.84,106.51,156.23,110c-3.46,2.63-6.28,3.4-7.95,2.19-.51-.38-1.62-1.5-.8-3.81,1.19-3.38,11.81-18.48,21.21-31,12.38-16.47,20.76-34.45,19.46-37a5.21,5.21,0,0,0-3.52-3.06,6.35,6.35,0,0,0-5.4,1.65c-4.33,3.58-24.3,30.43-29.4,38.11l-2.18,3.29c-7.48,11.31-15,22.52-17.05,24.47a2.22,2.22,0,0,1-2.84.47c-3.18-2,1.16-15.55,1.21-15.68.83-2.47,3.22-9.64,6.08-18.23,4.07-12.2,9.08-27.26,11.93-35.68,2.37-7.1,3-11.69,1.77-14-.57-1.15-1.62-1.89-3.62-2.56-3.81-1.37-8.72,1.57-10.76,5.05-2.07,3.83-20.7,55.36-23.23,63.19-1.82,5.64-4.62,9.31-7.49,9.83A3.27,3.27,0,0,1,100.4,96c-2.33-2.94,2.75-34.61,4.8-42.61,3.14-11.48,6-28.73,5.1-35.16-.56-4-3-6.54-5-7.21a1.58,1.58,0,0,0-1.49,0c-9,8.39-29.94,84.15-37.23,112.64l-.47,1.82-1.75-.66C46.74,118.22,19,108.32,14.81,108.32Zm135.74,1.59Z"/></svg>
