<svg id="Layer_1" data-name="Layer 1" xmlns="http://www.w3.org/2000/svg" viewBox="0 0 493 278"><defs><style>.cls-1{fill:none;stroke:#000;stroke-miterlimit:10;stroke-width:1.75px;}</style></defs><path d="M96.87,193.78a28.23,28.23,0,0,0,5-.2,6,6,0,0,0,1.55-.45c.2-.1.3.2.2.35a14.5,14.5,0,0,0-1.65,4.3c-.25,1-.7.95-.7,0,.15-2.75,0-3-2.15-3.15-1.1,0-2.75,0-4.3,0-.15,0-.35.15-.55.7-1.4,3.65-4.7,14.6-5.65,18.35-.55,2.1-.25,2.4,2,2.75.9.15.9.7,0,.7-1.6,0-2.85-.15-4.6-.15-1.6,0-3.4.15-4.2.15-1,0-1-.55-.1-.65,2-.25,2.5-.6,3.35-2.85,1.35-3.7,3.6-10.85,5.85-18.25.15-.45.15-.75,0-.75-.75,0-3.85.05-5,.1s-2.35.35-3.85,3.05c-.55.9-.9.65-.65-.05s1.25-2.95,1.7-4.5c0-.15.3-.3.45-.2.85.6,2.1.75,6.35.75Zm14.5,0c1.4,0,3-.25,3.8-.25s1,.6-.1.75c-1.9.3-2.1.8-2.7,2.25s-2.25,6.9-2.4,7.7c0,.45,0,.5.2.5,2.75,0,9,0,11.3-.15a.6.6,0,0,0,.65-.4c.45-1.05,1.75-5.7,2.2-7.35s.4-2.2-1.35-2.55c-.8-.15-1.15-.7,0-.7s2,.2,3.7.2c1.35,0,2.55-.2,3.7-.2.95,0,.9.5,0,.65-1.6.3-2.05.7-2.75,2.6-1.05,2.95-4.4,14.35-5,16.6s-.2,2.75,1.65,3c1,.2,1,.7,0,.7s-2.35-.2-4-.2-3.15.15-4,.15-.85-.55,0-.7c1.75-.25,2.1-.6,2.75-2.3.55-1.3,2.35-7.2,2.5-8.15,0-.3-.15-.4-.4-.4-1.7-.05-9.7.2-10.6.25s-1.1.2-1.25.55c-.45,1.05-1.65,5.15-2.2,7.3-.35,1.75-.25,2.45,1.75,2.7,1,.15,1,.75,0,.75s-2-.15-4.35-.15c-1.85,0-2.8.2-4,.2-.9,0-.9-.6,0-.75,2-.25,2.5-.75,3.4-3.35,1.3-3.45,4-12.2,5-15.85.6-2.15.5-2.6-1.6-2.95-.9-.15-1-.7,0-.7C108.52,193.58,110,193.78,111.37,193.78Zm32.6,0c4.45,0,6.3-.05,6.85-.25.1-.05.3.1.25.25a22.24,22.24,0,0,0-1.5,4.1c-.2,1-.75.85-.6-.25.1-1.75-.05-2.8-1.5-2.95a29.78,29.78,0,0,0-3.35-.1,14.43,14.43,0,0,0-2.55.15,1.46,1.46,0,0,0-.8.9,86.51,86.51,0,0,0-2.75,8.6c-.05.3,0,.45.1.45,1.2,0,2.5-.05,3.7-.1,2.25-.05,2.75-.25,3.8-2,.35-.65.85-.6.45.3l-1.1,2.6-.65,2.6c-.15.75-.5.55-.55-.05.2-2.05-.3-2.45-1.85-2.45-2.3,0-3.4.1-4.1.1-.1,0-.3.25-.45.5a59.32,59.32,0,0,0-2.45,8.2c-.1.65,0,1.4.4,1.6a15.47,15.47,0,0,0,3.7.25c4.75,0,4.95-.15,6.2-1a13.08,13.08,0,0,0,2.35-2.5c.3-.45,1.15-1.15.65,0a16.66,16.66,0,0,1-2.2,3.85,1.47,1.47,0,0,1-1.15.6c-.7,0-9.1-.2-12.7-.2-1.8,0-3,.2-4,.2-1.15,0-1-.55.05-.7,2-.3,2.6-.65,3.5-3.1,1.55-3.95,4.7-13.95,5.35-16.35.5-1.85.3-2.4-1.85-2.75-1-.15-1.2-.7-.05-.7s2.5.2,4,.2Z"/><path d="M182.1,184.38a.64.64,0,0,1,.36.57c0,1.4.16,2.91.21,3.48s0,1-.26,1-.36-.26-.47-.83a5.13,5.13,0,0,0-2-3.07,7.42,7.42,0,0,0-4.22-1.35,6.3,6.3,0,0,0-6.08,6.4c0,2.86,1.82,4.73,3.69,6,2,1.35,3.7,2.55,5.36,3.74,2,1.41,4.94,3.75,4.94,8.27,0,5.77-5.46,9.26-10.87,9.26a17.36,17.36,0,0,1-7.07-1.46,1.61,1.61,0,0,1-.89-1.4,31.26,31.26,0,0,1-.52-3.8c-.05-.57.06-1,.26-1s.37.32.58,1c.93,3.9,4.31,5.67,7.64,5.67a6.76,6.76,0,0,0,6.86-6.76c0-3.54-2.49-5.51-6.24-8-4-2.7-7.17-5.51-7.17-10a8.18,8.18,0,0,1,3.33-6.71,10.93,10.93,0,0,1,6.71-2.08A22.6,22.6,0,0,1,182.1,184.38Z"/><path d="M216.42,186a.93.93,0,0,1,.52.88,38.43,38.43,0,0,0,.15,4c0,.52-.2.83-.31.83s-.36-.26-.47-.68a8.11,8.11,0,0,0-2.49-4.16,11.92,11.92,0,0,0-8-2.6,12.54,12.54,0,0,0-9.05,4.06c-2.23,2.44-3.95,7.07-3.95,12.06A19.69,19.69,0,0,0,197.65,213a12.42,12.42,0,0,0,8.89,3.85,11.1,11.1,0,0,0,6.19-1.46,9.31,9.31,0,0,0,4-5.1c.21-.67.31-.88.52-.88s.31.47.31.78a35.68,35.68,0,0,1-.73,4.11,1.39,1.39,0,0,1-.52.78,18.83,18.83,0,0,1-10.14,2.86,17.92,17.92,0,0,1-13.52-5.51,18.25,18.25,0,0,1-4.36-11.5,16.55,16.55,0,0,1,5.82-13.15,18.68,18.68,0,0,1,12.12-4.32A24,24,0,0,1,216.42,186Z"/><path d="M224.27,189c-.16-3-.1-3.53-2.29-4.1-.57-.11-.83-.32-.83-.47s.31-.31.88-.31c.84,0,2.66.26,4.22.26s3.64-.21,4.36-.21.84.1.84.31-.26.36-.68.42c-1.82.41-2.08,1.19-2.24,3-.1,1.3-.2,9.93-.15,10.92,0,.52.1.94.41,1,1.41.1,8.48,0,13.37,0a52.12,52.12,0,0,0,5.3-.15c.42-.06.47-.16.52-.94.05-1.61-.1-7.54-.21-9.41-.15-3.33-.31-4.16-2.39-4.42-.41-.06-.78-.26-.78-.47s.21-.31.73-.31c1.3,0,2.76.26,4.78.26,1.62,0,3.07-.26,4.16-.26.53,0,.84,0,.84.31s-.21.31-.73.47c-2.19.46-2.29,1.3-2.34,3.79,0,1.93,0,9.36.05,12.9l.26,11.08c.11,2.6.37,3.22,2.55,3.69.57.15.78.26.78.47s-.31.31-.83.31c-1.2,0-3.59-.16-4.84-.16s-3,.16-4.11.16c-.62,0-1-.11-1-.42,0-.15.26-.31.89-.41,1.82-.37,2.18-.84,2.28-3s.16-8.63.06-10.66c-.06-.73-.06-1.25-.42-1.25-1.77-.1-8.11-.15-13.16-.15-2.44-.06-5.2-.06-5.82-.06-.16,0-.36.32-.36,1.2a105.41,105.41,0,0,0,.52,12.12c.15,1.09.88,1.56,2,1.82.73.15.89.36.89.57s-.42.31-.94.31c-1.2,0-3.07-.26-4.63-.26-1.35,0-3.27.21-4.21.21-.52,0-.88-.16-.88-.31s.36-.42.88-.52c1.82-.37,2.18-1,2.29-2.5s.21-5.25.21-13.42C224.43,197.79,224.37,190.93,224.27,189Z"/><path d="M293.64,201.07a16.84,16.84,0,0,1-9.73,15.29,17.09,17.09,0,0,1-6.86,1.56c-9.41,0-17.11-8.06-17.11-17.58a16,16,0,0,1,6.76-13.62,17.44,17.44,0,0,1,10.09-3.28C285.84,183.44,293.64,191.34,293.64,201.07Zm-25.53-12.95c-2.6,3.12-3.7,7.8-3.7,12a19.49,19.49,0,0,0,4,11.55c3.06,4,6.6,5.25,9.51,5.25a8.27,8.27,0,0,0,5.57-2.08c2.44-1.93,5.67-6.45,5.67-13.78a20,20,0,0,0-4.42-12.59,11.2,11.2,0,0,0-8.84-4.26C272.94,184.22,269.72,186.25,268.11,188.12Z"/><path d="M332.43,201.07a16.85,16.85,0,0,1-9.72,15.29,17.14,17.14,0,0,1-6.87,1.56c-9.41,0-17.11-8.06-17.11-17.58a16,16,0,0,1,6.76-13.62,17.44,17.44,0,0,1,10.09-3.28C324.63,183.44,332.43,191.34,332.43,201.07ZM306.9,188.12c-2.6,3.12-3.69,7.8-3.69,12a19.48,19.48,0,0,0,4,11.55c3.07,4,6.6,5.25,9.51,5.25a8.27,8.27,0,0,0,5.57-2.08c2.44-1.93,5.67-6.45,5.67-13.78a20,20,0,0,0-4.42-12.59,11.18,11.18,0,0,0-8.84-4.26C311.73,184.22,308.51,186.25,306.9,188.12Z"/><path d="M337.42,184.12c1.61,0,3.28.26,4.68.26,1.61,0,3.07-.21,4.26-.21.63,0,.84.1.84.26s-.32.41-.73.52c-2.13.41-2.24.73-2.39,4.31-.06.89-.11,5.67-.11,10.41,0,4.93,0,10.14.11,11.12.15,2.08.26,3.54.72,4.11.58.78,2,1.3,6.19,1.3a22.77,22.77,0,0,0,4.58-.26c1.14-.21,2.29-1.51,3.33-3.38.36-.62.62-.83.83-.83s.16.78-.1,1.46c-.16.41-1.15,3.27-1.36,3.64a1.24,1.24,0,0,1-1.09.52c-.52,0-4.47.05-7-.11S343.82,217,342,217c-1.62,0-4,.26-4.69.26s-1.09-.05-1.09-.36.47-.37.94-.42c2.23-.41,2.55-1.14,2.7-2.75.21-2.08.21-5.52.21-12.69s-.05-10.66-.15-12.43c-.16-3-.32-3.28-2.55-3.69-.63-.11-.78-.26-.78-.47S336.9,184.12,337.42,184.12Z"/><path d="M392.45,203.08a16.24,16.24,0,0,1-4.65,10.65,13,13,0,0,1-9.25,4,8.44,8.44,0,0,1-6.2-3,10.27,10.27,0,0,1-2.1-6.65,15.92,15.92,0,0,1,3.9-10.2c2.75-3.05,6.5-4.8,9.65-4.8C389.35,193,392.45,197.43,392.45,203.08ZM377,198.53a21.23,21.23,0,0,0-3.45,11.75c0,4.7,2.25,6.55,4.8,6.55,2.25,0,4.5-1.1,6.85-4.15a24,24,0,0,0,4.1-12.05c0-2.2-.8-6.75-4.75-6.75C381.25,193.88,378.9,196.13,377,198.53Zm32.4-4.75c3.6,0,5.85,0,6.45-.25.25-.1.35.15.25.4a17.58,17.58,0,0,0-1.6,4c-.15.7-.75,1-.65,0,.25-2.8-.1-3.25-3.5-3.3h-3.8c-.45,0-.65.05-1,.8a97.15,97.15,0,0,0-2.9,9.3c0,.2.1.4.25.4a52.52,52.52,0,0,0,5.65-.3c.95-.15,1.4-.5,2.1-1.65.5-.7,1-.7.65.2-.2.55-.7,1.5-1,2.55a15,15,0,0,0-.55,2.4c-.1.5-.7.95-.65-.1.1-1.65-.35-2.25-1.85-2.25-2.05,0-4.05.1-4.7.15a1.65,1.65,0,0,0-.6.5c-.6,1.55-1.85,5.85-2.2,7.35-.35,1.85-.15,2.1,2.05,2.45,1,.25.85.7-.1.7-.65,0-3.65-.15-4.65-.15-1.4,0-2.9.15-3.85.15s-.85-.55.1-.65c1.55-.3,2.3-.5,3.15-2.75,1-2.7,4.75-14.75,5.35-16.9s-.15-2.3-1.8-2.55c-1.05-.15-.9-.7.15-.7,1.25,0,3.15.2,4.75.2Z"/><path d="M29.63,241a.93.93,0,0,1,.52.88,38.43,38.43,0,0,0,.15,4c0,.52-.21.83-.31.83s-.36-.26-.47-.68A8.11,8.11,0,0,0,27,241.87a11.92,11.92,0,0,0-8-2.6,12.52,12.52,0,0,0-9,4.06c-2.23,2.44-3.95,7.07-3.95,12.06A19.74,19.74,0,0,0,10.85,268a12.46,12.46,0,0,0,8.9,3.85,11,11,0,0,0,6.18-1.46,9.28,9.28,0,0,0,4-5.1c.21-.67.31-.88.52-.88s.31.47.31.78a35.68,35.68,0,0,1-.73,4.11,1.39,1.39,0,0,1-.52.78,18.85,18.85,0,0,1-10.14,2.86,17.92,17.92,0,0,1-13.52-5.51,18.25,18.25,0,0,1-4.37-11.5,16.56,16.56,0,0,1,5.83-13.15,18.65,18.65,0,0,1,12.11-4.32A24,24,0,0,1,29.63,241Z"/><path d="M68.09,256.07a16.85,16.85,0,0,1-9.72,15.29,17.09,17.09,0,0,1-6.86,1.56c-9.42,0-17.11-8.06-17.11-17.58a16,16,0,0,1,6.76-13.62,17.43,17.43,0,0,1,10.08-3.28C60.29,238.44,68.09,246.34,68.09,256.07ZM42.56,243.12c-2.6,3.12-3.69,7.8-3.69,12a19.55,19.55,0,0,0,4,11.55c3.07,4.05,6.61,5.25,9.52,5.25A8.25,8.25,0,0,0,58,269.85c2.45-1.93,5.67-6.45,5.67-13.78a20,20,0,0,0-4.42-12.59,11.18,11.18,0,0,0-8.84-4.26C47.4,239.22,44.17,241.25,42.56,243.12Z"/><path d="M71.51,239.12c1.56,0,4.37.26,6.24.26.26,0,.47.15,1.2,1.09,3.43,4.37,16.85,19.45,21.58,24.65.1.15.31.15.31-.31,0-1.93-.15-16.23-.26-20.81,0-3.06-1.14-3.58-2.81-4-.62-.16-1-.26-1-.47s.46-.36,1-.36c.94,0,2.45.21,3.59.21,1.51,0,2.81-.21,3.38-.21s.84.1.84.31-.42.36-.89.52c-2,.68-2.13,1.77-2.34,3.12-.21,2-.31,12.9-.31,17.79,0,4.73-.11,7.8,0,10.55,0,1.09,0,1.67-.42,1.67-.2,0-.88-.78-1.77-1.93-3-3.69-16.38-19-23.4-27.2-.26-.31-.41-.2-.41.11,0,1.77-.16,18.82-.16,21.22s.16,3.48.57,4.36a4,4,0,0,0,2.6,1.62c.52.15.89.31.89.62s-.52.31-1,.31c-.94,0-2.34-.26-4-.26s-3.23.26-3.64.26c-.78,0-.89-.15-.89-.31s.42-.36,1-.52c1.87-.57,2.5-1,2.76-4,.21-2,.57-18.52.57-22.68,0-3.07-.47-3.43-.94-3.79a5.23,5.23,0,0,0-2.49-1c-.73-.11-1-.21-1-.47S70.68,239.12,71.51,239.12Z"/><path d="M131.1,239.32c2.45,0,3.38-.1,4.27-.57.21-.15.36-.21.42-.1a1.19,1.19,0,0,1,.05.67,16.4,16.4,0,0,0-.16,4c0,.78-.26,1.14-.42,1.14s-.36-.47-.41-.73a4.82,4.82,0,0,0-.94-2.44c-.47-.42-1.14-.63-4.78-.63-1.61,0-4.21,0-5,.11-.26.05-.31.47-.31.83,0,1.92-.1,14-.1,16.23,0,2.91.15,9.36.31,11,.21,1.77.73,2.13,2.5,2.65.62.16.88.26.88.52s-.36.36-1,.36c-1.2,0-2.81-.31-4.89-.31-2.65,0-4.21.31-5,.31s-.94-.2-.94-.46.47-.37,1-.47c2.5-.37,2.81-1.2,3-3.59.36-5,.36-25.74.26-26.47-.06-.47-.21-.62-.37-.62a29.45,29.45,0,0,0-3.9-.16,39.06,39.06,0,0,0-4.42.21c-1,.21-1.66.83-2.39,2.86-.26.62-.52.88-.73.88s-.21-.41-.15-.78a30.12,30.12,0,0,0,.67-4.47c0-.42,0-.68.31-.78s.26.05.42.21a2.83,2.83,0,0,0,1.66.52c.84.05,6,.21,11.34.21Z"/><path d="M139.84,239.17c1.25,0,2.86.21,4.37.21,2.75,0,9.83-.11,11.91-.11,1.92,0,2.65-.1,3.17-.1.21,0,.41.31.52.83s.15,2.5.36,3.54c.05.31,0,.78-.21.78s-.31-.16-.57-.73c-.88-2.19-1.87-3-2.81-3.17-1.19-.21-8.06-.21-9.72-.16-.42.05-.62.16-.62,2V254.2c0,.62.15.83.31.83h6.55c2.39,0,3-.11,3.48-.36a4.52,4.52,0,0,0,1.36-2c.15-.36.31-.57.52-.57s.26.26.26.57-.21,1.92-.32,2.75a16.3,16.3,0,0,0,.11,2.92c.15.73-.21,1-.31,1s-.26-.26-.63-1.1c-.15-.46-.52-1.45-1.3-1.66-1.19-.26-2.6-.31-9.62-.31-.36,0-.41.1-.41,1,0,2.65.15,9.93.15,10.92a2.91,2.91,0,0,0,1.35,2.34c.84.36,1.67.52,5.15.52,4.37,0,5.31-.11,6.35-1a25.81,25.81,0,0,0,1.87-2.5c.52-.67.73-.88.93-.88s.27.36.06.93c-.32,1.2-.89,3.38-1.15,4a1,1,0,0,1-.83.62c-5.51,0-11.39-.21-15.6-.21-1.77,0-4.68.26-5.25.26s-1-.15-1-.36.36-.31.94-.47c1.76-.26,2.8-.94,2.86-3.28.26-8.26.26-14,.26-24.18,0-3-.63-3.59-2.5-4-.52-.11-.78-.26-.78-.47S139.42,239.17,139.84,239.17Z"/><path d="M166.26,239.12c1.19,0,4.36.26,6,.26.21,0,.47.2.67.72,2.24,4.94,9.57,19.5,12.85,25.64.15.31.26.1.47-.21,3.06-5.87,9.67-18.72,10.92-21.27.57-1.3,1.24-3.17,1.56-4.21.05-.1.26-.67.52-.67,1.45,0,4.21-.32,5.66-.32.53,0,.84.11.84.32s-.42.41-.78.46c-3.07.73-3.28,1.3-3.44,4.37-.1,1.77-.15,8-.15,10.61,0,5.67.21,10.82.31,12.48.21,3,.78,3.49,2.81,4.11.47.16.83.31.83.57s-.31.31-.94.31c-1,0-3.79-.31-5.2-.31-2.13,0-3.53.11-4.31.11-.52,0-1.09-.06-1.09-.42s.52-.42,1-.47c2.18-.57,2.54-1.4,2.7-5.72.16-2.81.16-16.74.16-19.08,0-.52-.16-.52-.26-.21-3.49,7-9.88,19.45-12.38,25-.26.63-.47.94-.78.94s-.62-.83-1.09-1.82c-2.45-5.25-9.36-19.71-11.34-23.77-.26-.41-.36-.41-.47.26-.2,3-.78,16.54-.78,18.67a12.76,12.76,0,0,0,.32,3.8c.26,1.25,1.45,1.82,2.65,2.08.57.1.88.31.88.52s-.47.41-1,.36-2.49-.26-4.37-.26-3.27.31-3.79.31c-.68,0-.94-.1-.94-.36s.21-.36.94-.52a3.88,3.88,0,0,0,2.8-1.66c.53-.78.79-2.4,1.1-5.62.31-3.07,1-14.61,1-17.94,0-3.12-.32-3.85-1.2-4.89a4.79,4.79,0,0,0-2.86-1.4c-.47-.11-.83-.26-.83-.47S165.79,239.12,166.26,239.12Z"/><path d="M209.83,239.17c.94,0,2.34,0,3.74-.11s4.16-.36,5.47-.36c4.05,0,7.43,1.09,9.46,3.33a9.74,9.74,0,0,1,2.65,6.76,9.21,9.21,0,0,1-4.26,8.32,10.32,10.32,0,0,1-5.67,1.66,6.23,6.23,0,0,1-1.61-.2c-.31-.11-.63-.27-.63-.47s.16-.26.58-.21a6.44,6.44,0,0,0,1,.05c1.72,0,6.5-1.45,6.5-8.79a10.42,10.42,0,0,0-2.44-6.86,6.92,6.92,0,0,0-5.72-2.76,8.33,8.33,0,0,0-2.29.31c-.21.06-.42.42-.42.89V258.2c0,5.56.16,8.95.26,10.4.11,2,.79,2.55,2.34,2.76.79.15,1,.26,1,.52s-.36.36-.88.36c-1.3,0-2.81-.26-5.25-.26-1.56,0-3.17.21-3.8.21-.36,0-.88-.1-.88-.31s.21-.37.88-.47c1.56-.31,2.13-.68,2.24-2.39.1-1.2.15-7,.15-15.14,0-5-.2-11-.36-12.16,0-1-.62-1.56-2.13-1.72-.26-.05-.83-.16-.83-.47C209,239.38,209.36,239.17,209.83,239.17Z"/><path d="M235.73,239.12c1.61,0,3.27.26,4.68.26,1.61,0,3.06-.21,4.26-.21.63,0,.83.1.83.26s-.31.41-.73.52c-2.13.41-2.23.73-2.39,4.31,0,.89-.1,5.67-.1,10.41,0,4.93.05,10.14.1,11.12.16,2.08.26,3.54.73,4.11.57.78,2,1.3,6.19,1.3a22.77,22.77,0,0,0,4.58-.26c1.14-.21,2.28-1.51,3.32-3.38.37-.62.63-.83.84-.83s.15.78-.11,1.46c-.15.41-1.14,3.27-1.35,3.64a1.25,1.25,0,0,1-1.09.52c-.52,0-4.48,0-7-.11s-6.35-.26-8.17-.26c-1.61,0-4,.26-4.68.26s-1.09-.05-1.09-.36.47-.37.94-.42c2.23-.41,2.54-1.14,2.7-2.75.21-2.08.21-5.52.21-12.69s0-10.66-.16-12.43c-.15-3-.31-3.28-2.55-3.69-.62-.11-.78-.26-.78-.47S235.21,239.12,235.73,239.12Z"/><path d="M277.07,239a21.3,21.3,0,0,0,1.35,4.37c3.64,9.67,6.45,16.75,9.67,24.08,1.3,3.07,1.82,3.53,3.12,3.85.62.1.88.31.88.46s-.46.37-.93.37c-1,0-1.82-.16-4.53-.16-1.92,0-3.9.21-5.14.21-.58,0-.89-.1-.89-.36s.47-.42,1-.47c2.08-.31,2.39-1.2,2.34-2.34-.1-.89-1.87-5.52-3.64-10.09-.16-.36-.47-.63-.68-.63-2,.11-8.52.11-9.67.11-.26,0-.57.57-.78,1-.47,1.14-2,5-2.7,7.54-.57,2-.57,3,0,3.53a4.06,4.06,0,0,0,2.18.89c.52.15.78.36.78.52s-.47.36-1,.36c-1,0-3.12-.26-5-.26-1.3,0-2.29.26-3.54.26-.57,0-.88-.1-.88-.36s.52-.37,1-.47c2.39-.47,2.86-.94,4.84-5.3,1.5-3.23,6.08-14.62,9.1-22.37a3.62,3.62,0,0,0,.31-1.45c0-.21.05-.52.15-.57a4.94,4.94,0,0,0,1.88-2.71c.1-.21.15-.52.36-.52S277,238.7,277.07,239Zm2.08,17.11c-2.08-5.87-3.49-9.2-4.27-11-.16-.42-.26-.26-.41.1-1.25,3-3.38,8.95-4.11,11.08-.05.1-.05.47.15.47,1,.05,2.29.05,4.11.05a24.65,24.65,0,0,0,4.53-.21A.8.8,0,0,0,279.15,256.12Z"/><path d="M311.8,239.32c2.45,0,3.38-.1,4.27-.57.2-.15.36-.21.41-.1a1.1,1.1,0,0,1,0,.67,17.11,17.11,0,0,0-.15,4c0,.78-.26,1.14-.42,1.14s-.36-.47-.41-.73a4.82,4.82,0,0,0-.94-2.44c-.47-.42-1.14-.63-4.78-.63-1.62,0-4.22,0-5.05.11-.26.05-.31.47-.31.83,0,1.92-.1,14-.1,16.23-.06,2.91.15,9.36.31,11,.21,1.77.73,2.13,2.49,2.65.63.16.89.26.89.52s-.37.36-1,.36c-1.2,0-2.81-.31-4.89-.31-2.65,0-4.21.31-5,.31-.68,0-.94-.2-.94-.46s.47-.37,1-.47c2.5-.37,2.81-1.2,3-3.59.37-5,.37-25.74.26-26.47-.05-.47-.2-.62-.36-.62a29.45,29.45,0,0,0-3.9-.16,39.06,39.06,0,0,0-4.42.21c-1,.21-1.67.83-2.39,2.86-.26.62-.52.88-.73.88s-.21-.41-.16-.78a30.22,30.22,0,0,0,.68-4.47c.05-.42.05-.68.31-.78s.26.05.42.21a2.78,2.78,0,0,0,1.66.52c.83.05,6,.21,11.34.21Z"/><path d="M320.38,239.17c1.72,0,2.86.21,4.42.21,1.72,0,3.33-.21,4.47-.21.47,0,.78.1.78.26s-.21.41-.78.47c-2.08.31-2.18,1.09-2.29,3.22-.15,2.6-.1,8.63-.1,11.86,0,7.64.1,12,.21,13.57.15,2,.47,2.34,2,2.7.73.16.89.32.89.58s-.37.31-1,.31c-.83,0-2.13-.16-3.64-.16-2.6,0-4.11.26-5.1.26-.46,0-.83-.1-.83-.36s.26-.31,1.15-.52c1.92-.42,2.23-1.25,2.28-4.37s.06-17.37.06-19.81a44.61,44.61,0,0,0-.21-5c-.21-1.71-.73-1.92-2.5-2.34-.36-.1-.57-.26-.57-.41S319.91,239.17,320.38,239.17Z"/><path d="M332.29,239.17c1.19,0,3.38.21,4.57.21,1.67,0,3.9-.21,4.84-.21.78,0,1,.21,1,.31,0,.31-.47.47-1,.57-1.25.16-1.82.83-1.82,1.46a8,8,0,0,0,.62,2.44c.94,2.76,7.28,19.19,8.48,21.64.05.15.21.31.26.1.83-1.72,6.91-17.27,7.8-19.81a15,15,0,0,0,1-4.06c0-1.2-1-1.56-2.55-1.92-.52-.11-.88-.26-.88-.47s.26-.31,1-.31c1.14,0,3.22.26,4.31.26s2.6-.21,3.44-.21c.67,0,.88.05.88.21s-.21.41-1,.62c-2,.52-2.76,1.51-4.37,5.15-1,2.18-4,9.67-8.94,21.63-1.2,3-1.88,4.89-2.08,5.67-.11.36-.32.62-.42.62-.31,0-.42-.41-.62-1.09-1.72-5.15-9.62-25.17-11.6-29.64a3.45,3.45,0,0,0-2.91-2.34c-.63-.1-1-.31-1-.52S331.82,239.17,332.29,239.17Z"/><path d="M366.14,239.17c1.25,0,2.86.21,4.37.21,2.75,0,9.83-.11,11.91-.11,1.92,0,2.65-.1,3.17-.1.21,0,.41.31.52.83s.15,2.5.36,3.54c0,.31,0,.78-.21.78s-.31-.16-.57-.73c-.88-2.19-1.87-3-2.81-3.17-1.19-.21-8.06-.21-9.72-.16-.42.05-.62.16-.62,2V254.2c0,.62.15.83.31.83h6.55c2.39,0,3-.11,3.48-.36a4.52,4.52,0,0,0,1.36-2c.15-.36.31-.57.52-.57s.26.26.26.57-.21,1.92-.32,2.75a16.3,16.3,0,0,0,.11,2.92c.15.73-.21,1-.31,1s-.26-.26-.63-1.1c-.15-.46-.52-1.45-1.3-1.66-1.19-.26-2.6-.31-9.62-.31-.36,0-.41.1-.41,1,0,2.65.15,9.93.15,10.92a2.91,2.91,0,0,0,1.35,2.34c.84.36,1.67.52,5.15.52,4.37,0,5.31-.11,6.35-1a25.81,25.81,0,0,0,1.87-2.5c.52-.67.73-.88.93-.88s.26.36.06.93c-.32,1.2-.89,3.38-1.15,4a1,1,0,0,1-.83.62c-5.51,0-11.39-.21-15.6-.21-1.77,0-4.68.26-5.25.26s-1-.15-1-.36.36-.31.94-.47c1.76-.26,2.8-.94,2.86-3.28.26-8.26.26-14,.26-24.18,0-3-.63-3.59-2.5-4-.52-.11-.78-.26-.78-.47S365.72,239.17,366.14,239.17Z"/><path d="M404.69,239.12c1.61,0,3.28.26,4.68.26,1.61,0,3.07-.21,4.27-.21.62,0,.83.1.83.26s-.32.41-.73.52c-2.13.41-2.24.73-2.39,4.31-.05.89-.11,5.67-.11,10.41,0,4.93.06,10.14.11,11.12.15,2.08.26,3.54.72,4.11.58.78,2,1.3,6.19,1.3a22.71,22.71,0,0,0,4.58-.26c1.14-.21,2.29-1.51,3.33-3.38.36-.62.62-.83.83-.83s.16.78-.1,1.46c-.16.41-1.15,3.27-1.36,3.64a1.24,1.24,0,0,1-1.09.52c-.52,0-4.47,0-7-.11s-6.34-.26-8.16-.26c-1.62,0-4,.26-4.68.26s-1.1-.05-1.1-.36.47-.37.94-.42c2.24-.41,2.55-1.14,2.71-2.75.2-2.08.2-5.52.2-12.69s0-10.66-.15-12.43c-.16-3-.31-3.28-2.55-3.69-.62-.11-.78-.26-.78-.47S404.17,239.12,404.69,239.12Z"/><path d="M430.22,239.17c1.72,0,2.86.21,4.42.21,1.72,0,3.33-.21,4.47-.21.47,0,.78.1.78.26s-.2.41-.78.47c-2.08.31-2.18,1.09-2.28,3.22-.16,2.6-.11,8.63-.11,11.86,0,7.64.11,12,.21,13.57.16,2,.47,2.34,2,2.7.73.16.88.32.88.58s-.36.31-1,.31c-.83,0-2.13-.16-3.64-.16-2.6,0-4.11.26-5.09.26-.47,0-.84-.1-.84-.36s.26-.31,1.15-.52c1.92-.42,2.23-1.25,2.29-4.37s.05-17.37.05-19.81a44.61,44.61,0,0,0-.21-5c-.21-1.71-.73-1.92-2.5-2.34-.36-.1-.57-.26-.57-.41S429.75,239.17,430.22,239.17Z"/><path d="M463.76,239.22c1.1,0,1.46.26,1.46.62.1.73.26,3,.36,3.64s0,1-.26,1-.36-.36-.62-1c-.89-2-2-2.81-3.9-3-1.66-.16-3.9-.16-8.63-.16-.37,0-.73.68-.73.94-.05,1.45-.16,7.43-.05,13.42a.64.64,0,0,0,.46.62c5.31,0,7.8,0,8.64-.16s1.45-.26,2.23-2c.26-.51.42-.72.58-.72s.31.26.26.78-.26,2.13-.26,3.22a25,25,0,0,0,.2,2.5c0,.67-.1.88-.36.88s-.42-.42-.73-1.14c-.42-1.15-.94-1.67-1.56-1.82-.83-.16-1.66-.26-9-.26a1,1,0,0,0-.52.67c-.05.94.06,9.05.16,11.39.05,2,.36,2.29,2.76,2.86.41.11.72.26.72.47s-.57.36-1.09.36c-.73,0-3-.31-5.09-.31s-3.28.21-4,.21c-.47,0-.83-.1-.83-.36s.26-.37.94-.52c2-.42,2.23-.84,2.34-2.76.15-1.72.15-8.17.15-13.88,0-5.52,0-8.69-.15-11.86-.11-1.87-.26-2.34-2.14-2.81-.46-.1-.83-.26-.83-.52s.31-.31.78-.31c.63,0,3.49.21,5.77.21C456.27,239.38,461.79,239.22,463.76,239.22Z"/><path d="M469.12,239.17c1.25,0,2.86.21,4.37.21,2.75,0,9.82-.11,11.9-.11s2.66-.1,3.18-.1c.2,0,.41.31.52.83s.15,2.5.36,3.54c.05.31,0,.78-.21.78s-.31-.16-.57-.73c-.88-2.19-1.87-3-2.81-3.17-1.19-.21-8.06-.21-9.72-.16-.42.05-.63.16-.63,2V254.2c0,.62.16.83.32.83h6.55c2.39,0,3-.11,3.48-.36a4.61,4.61,0,0,0,1.36-2c.15-.36.31-.57.51-.57s.26.26.26.57-.2,1.92-.31,2.75a15.4,15.4,0,0,0,.11,2.92c.15.73-.21,1-.32,1s-.25-.26-.62-1.1c-.16-.46-.52-1.45-1.3-1.66-1.2-.26-2.6-.31-9.62-.31-.36,0-.42.1-.42,1,0,2.65.16,9.93.16,10.92a2.91,2.91,0,0,0,1.35,2.34c.83.36,1.67.52,5.15.52,4.37,0,5.3-.11,6.34-1a24.29,24.29,0,0,0,1.88-2.5c.52-.67.73-.88.93-.88s.26.36.06.93c-.32,1.2-.89,3.38-1.15,4a1,1,0,0,1-.83.62c-5.51,0-11.39-.21-15.6-.21-1.77,0-4.68.26-5.25.26s-1-.15-1-.36.36-.31.93-.47c1.77-.26,2.81-.94,2.86-3.28.26-8.26.26-14,.26-24.18,0-3-.62-3.59-2.49-4-.52-.11-.78-.26-.78-.47S468.7,239.17,469.12,239.17Z"/><path class="cls-1" d="M267.45,82.74c-4.69,6-2.56,9.69-1.39,14.79s1.45,13.82-3.81,17.94c-5.41,4-20.31,7.33-28.12-.2s3.33-16.06-8.93-29.22c-4.93-5.25-9.85-11.67-19-18.11-14.51-10.17-9.59-12.33-6.46-12.34s26.12,8.68,26.12,8.68,13.71-53.58,19.62-59c1.16-1.16,4.34.56,4.85,4.23s-1.12,13-2.67,18.65S244.3,48.6,245,49.54s2.75-.12,4.07-4.23,11.05-31,12.18-33.07,4.16-3.91,6.63-3,4,2.41,1.51,9.75-8.32,25-9.37,28.07-1.85,8.2-.58,7,7.48-10.69,9.88-14.31,13.06-18,15.48-20,5-1.14,6,1-4.48,12.58-10.21,20.19S270.19,55.38,269.69,56.8s.93,1.58,3.2-.14,16.56-12.12,18.46-13.15,5.26-1.8,5.26,1.33-8.19,9.86-12.13,14.51C279.14,65.26,271.3,77.75,267.45,82.74Z"/><path class="cls-1" d="M296.06,115.31S273.6,88.07,248.27,88.07s-43.93,33-43.93,33,22.46,23.37,47.79,23.37S296.06,115.31,296.06,115.31Z"/></svg>