<svg id="Layer_1" data-name="Layer 1" xmlns="http://www.w3.org/2000/svg" viewBox="0 0 493 295"><path d="M97.33,211.31a28.23,28.23,0,0,0,5-.2,6,6,0,0,0,1.55-.45c.2-.1.3.2.2.35a14.5,14.5,0,0,0-1.65,4.3c-.25,1-.7.95-.7,0,.15-2.75,0-3-2.15-3.15-1.1,0-2.75,0-4.3,0-.15,0-.35.15-.55.7-1.4,3.65-4.7,14.6-5.65,18.35-.55,2.1-.25,2.4,2,2.75.9.15.9.7,0,.7-1.6,0-2.85-.15-4.6-.15s-3.4.15-4.2.15c-1,0-1-.55-.1-.65,2-.25,2.5-.6,3.35-2.85,1.35-3.7,3.6-10.85,5.85-18.25.15-.45.15-.75,0-.75-.75,0-3.85.05-5,.1s-2.35.35-3.85,3.05c-.55.9-.9.65-.65-.05s1.25-2.95,1.7-4.5c0-.15.3-.3.45-.2.85.6,2.1.75,6.35.75Zm14.5,0c1.4,0,3-.25,3.8-.25s1,.6-.1.75c-1.9.3-2.1.8-2.7,2.25s-2.25,6.9-2.4,7.7c-.05.45,0,.5.2.5,2.75,0,9,0,11.3-.15a.6.6,0,0,0,.65-.4c.45-1.05,1.75-5.7,2.2-7.35s.4-2.2-1.35-2.55c-.8-.15-1.15-.7,0-.7s1.95.2,3.7.2c1.35,0,2.55-.2,3.7-.2.95,0,.9.5,0,.65-1.6.3-2.05.7-2.75,2.6-1.05,2.95-4.4,14.35-5,16.6s-.2,2.75,1.65,3c1,.2,1,.7,0,.7-1.15,0-2.35-.2-4-.2s-3.15.15-4,.15c-1,0-.85-.55,0-.7,1.75-.25,2.1-.6,2.75-2.3.55-1.3,2.35-7.2,2.5-8.15,0-.3-.15-.4-.4-.4-1.7-.05-9.7.2-10.6.25s-1.1.2-1.25.55c-.45,1.05-1.65,5.15-2.2,7.3-.35,1.75-.25,2.45,1.75,2.7,1,.15,1,.75,0,.75s-2-.15-4.35-.15c-1.85,0-2.8.2-4,.2-.9,0-.9-.6,0-.75,2-.25,2.5-.75,3.4-3.35,1.3-3.45,4-12.2,5-15.85.6-2.15.5-2.6-1.6-2.95-.9-.15-1.05-.7,0-.7S110.48,211.31,111.83,211.31Zm32.6,0c4.45,0,6.3-.05,6.85-.25.1-.05.3.1.25.25a22.24,22.24,0,0,0-1.5,4.1c-.2,1-.75.85-.6-.25.1-1.75-.05-2.8-1.5-2.95a29.78,29.78,0,0,0-3.35-.1,14.43,14.43,0,0,0-2.55.15,1.46,1.46,0,0,0-.8.9,86.51,86.51,0,0,0-2.75,8.6c0,.3,0,.45.1.45,1.2,0,2.5-.05,3.7-.1,2.25-.05,2.75-.25,3.8-2,.35-.65.85-.6.45.3l-1.1,2.6-.65,2.6c-.15.75-.5.55-.55-.05.2-2.05-.3-2.45-1.85-2.45-2.3,0-3.4.1-4.1.1-.1,0-.3.25-.45.5a59.32,59.32,0,0,0-2.45,8.2c-.1.65,0,1.4.4,1.6a15.47,15.47,0,0,0,3.7.25c4.75,0,5-.15,6.2-1a13.08,13.08,0,0,0,2.35-2.5c.3-.45,1.15-1.15.65,0a16.66,16.66,0,0,1-2.2,3.85,1.47,1.47,0,0,1-1.15.6c-.7,0-9.1-.2-12.7-.2-1.8,0-3,.2-4,.2-1.15,0-1-.55.05-.7,2-.3,2.6-.65,3.5-3.1,1.55-3.95,4.7-13.95,5.35-16.35.5-1.85.3-2.4-1.85-2.75-1-.15-1.2-.7-.05-.7s2.5.2,4,.2Z"/><path d="M182.56,201.9a.68.68,0,0,1,.37.57c0,1.41.15,2.92.2,3.49s0,1-.26,1-.36-.26-.46-.83a5.13,5.13,0,0,0-2-3.07,7.32,7.32,0,0,0-4.21-1.35,6.3,6.3,0,0,0-6.09,6.39c0,2.86,1.82,4.73,3.7,6s3.69,2.55,5.35,3.75c2,1.4,4.94,3.74,4.94,8.27,0,5.77-5.46,9.25-10.87,9.25a17.53,17.53,0,0,1-7.07-1.45,1.61,1.61,0,0,1-.88-1.41,29.47,29.47,0,0,1-.52-3.79c-.06-.57.05-1,.26-1s.36.31.57,1c.93,3.9,4.32,5.67,7.64,5.67a6.77,6.77,0,0,0,6.87-6.76c0-3.54-2.5-5.52-6.24-8-4-2.71-7.18-5.51-7.18-10a8.16,8.16,0,0,1,3.33-6.7,10.86,10.86,0,0,1,6.71-2.08A22.69,22.69,0,0,1,182.56,201.9Z"/><path d="M216.88,203.51a.93.93,0,0,1,.52.89c-.1,1.25.16,3.48.16,4s-.21.83-.31.83-.37-.26-.47-.67a8.11,8.11,0,0,0-2.5-4.16c-1.92-1.77-4.94-2.6-8-2.6a12.53,12.53,0,0,0-9,4c-2.24,2.45-4,7.08-4,12.07a19.67,19.67,0,0,0,4.79,12.58,12.39,12.39,0,0,0,8.89,3.85,11,11,0,0,0,6.19-1.46,9.27,9.27,0,0,0,4-5.09c.21-.68.32-.88.52-.88s.32.46.32.77a37.54,37.54,0,0,1-.73,4.11,1.41,1.41,0,0,1-.52.78,18.85,18.85,0,0,1-10.14,2.86,17.87,17.87,0,0,1-13.52-5.51,18.17,18.17,0,0,1-4.37-11.49,16.59,16.59,0,0,1,5.82-13.16A18.73,18.73,0,0,1,206.69,201,24.09,24.09,0,0,1,216.88,203.51Z"/><path d="M224.73,206.53c-.15-3-.1-3.54-2.29-4.11-.57-.1-.83-.31-.83-.47s.31-.31.89-.31c.83,0,2.65.26,4.21.26s3.64-.21,4.37-.21.83.11.83.32-.26.36-.68.41c-1.82.42-2.08,1.2-2.23,3-.11,1.3-.21,9.93-.16,10.92,0,.52.1.93.42,1,1.4.11,8.47.06,13.36.06a49.26,49.26,0,0,0,5.31-.16c.41-.05.46-.16.52-.94.05-1.61-.11-7.54-.21-9.41-.16-3.33-.31-4.16-2.39-4.42-.42,0-.79-.26-.79-.47s.21-.31.73-.31c1.3,0,2.76.26,4.79.26,1.61,0,3.06-.26,4.16-.26.52,0,.83.05.83.31s-.21.32-.73.47c-2.18.47-2.29,1.3-2.34,3.8-.05,1.92,0,9.36.05,12.89l.26,11.08c.11,2.6.37,3.23,2.55,3.69.57.16.78.26.78.47s-.31.31-.83.31c-1.2,0-3.59-.15-4.84-.15-1.4,0-3,.15-4.1.15-.63,0-1.05-.1-1.05-.41,0-.16.26-.32.89-.42,1.82-.36,2.18-.83,2.29-3s.15-8.64.05-10.66c-.05-.73-.05-1.25-.42-1.25-1.76-.11-8.11-.16-13.15-.16-2.45-.05-5.2-.05-5.83-.05-.15,0-.36.31-.36,1.2a105.33,105.33,0,0,0,.52,12.11c.15,1.1.88,1.56,2,1.82.72.16.88.37.88.58s-.42.31-.94.31c-1.19,0-3.07-.26-4.63-.26-1.35,0-3.27.21-4.21.21-.52,0-.88-.16-.88-.32s.36-.41.88-.52c1.82-.36,2.19-1,2.29-2.49s.21-5.26.21-13.42C224.89,215.32,224.84,208.45,224.73,206.53Z"/><path d="M294.1,218.59a16.79,16.79,0,0,1-16.59,16.85c-9.41,0-17.11-8.06-17.11-17.57a16.08,16.08,0,0,1,6.76-13.63A17.45,17.45,0,0,1,277.25,201C286.3,201,294.1,208.87,294.1,218.59Zm-25.53-12.94c-2.6,3.12-3.69,7.8-3.69,12a19.54,19.54,0,0,0,4,11.54c3.07,4.06,6.6,5.26,9.52,5.26a8.32,8.32,0,0,0,5.56-2.08c2.44-1.93,5.67-6.45,5.67-13.79A20,20,0,0,0,285.21,206a11.15,11.15,0,0,0-8.84-4.26C273.4,201.75,270.18,203.77,268.57,205.65Z"/><path d="M332.89,218.59a16.79,16.79,0,0,1-16.59,16.85c-9.41,0-17.1-8.06-17.1-17.57A16.05,16.05,0,0,1,306,204.24,17.4,17.4,0,0,1,316,201C325.09,201,332.89,208.87,332.89,218.59Zm-25.53-12.94c-2.6,3.12-3.69,7.8-3.69,12a19.54,19.54,0,0,0,4,11.54c3.07,4.06,6.61,5.26,9.52,5.26a8.3,8.3,0,0,0,5.56-2.08c2.45-1.93,5.67-6.45,5.67-13.79A20,20,0,0,0,324,206a11.15,11.15,0,0,0-8.84-4.26C312.2,201.75,309,203.77,307.36,205.65Z"/><path d="M337.88,201.64c1.61,0,3.28.26,4.68.26,1.61,0,3.07-.21,4.27-.21.62,0,.83.11.83.26s-.31.42-.73.52c-2.13.42-2.23.73-2.39,4.32-.05.88-.11,5.67-.11,10.4,0,4.94.06,10.14.11,11.13.16,2.08.26,3.53.73,4.11.57.78,2,1.3,6.19,1.3a23.45,23.45,0,0,0,4.57-.26c1.15-.21,2.29-1.51,3.33-3.38.36-.63.62-.83.83-.83s.16.77-.1,1.45c-.16.42-1.15,3.28-1.36,3.64a1.22,1.22,0,0,1-1.09.52c-.52,0-4.47,0-7-.1s-6.34-.26-8.16-.26c-1.61,0-3.95.26-4.68.26s-1.09-.05-1.09-.37.46-.36.93-.41c2.24-.42,2.55-1.15,2.71-2.76.21-2.08.21-5.51.21-12.69s-.06-10.66-.16-12.43c-.16-3-.31-3.27-2.55-3.69-.62-.1-.78-.26-.78-.47S337.36,201.64,337.88,201.64Z"/><path d="M392.91,220.61a16.24,16.24,0,0,1-4.65,10.65,13,13,0,0,1-9.25,4,8.44,8.44,0,0,1-6.2-3,10.27,10.27,0,0,1-2.1-6.65,15.92,15.92,0,0,1,3.9-10.2c2.75-3.05,6.5-4.8,9.65-4.8C389.81,210.56,392.91,215,392.91,220.61Zm-15.45-4.55A21.23,21.23,0,0,0,374,227.81c0,4.7,2.25,6.55,4.8,6.55,2.25,0,4.5-1.1,6.85-4.15a24,24,0,0,0,4.1-12.05c0-2.2-.8-6.75-4.75-6.75C381.71,211.41,379.36,213.66,377.46,216.06Zm32.4-4.75c3.6,0,5.85,0,6.45-.25.25-.1.35.15.25.4a17.58,17.58,0,0,0-1.6,4c-.15.7-.75,1-.65,0,.25-2.8-.1-3.25-3.5-3.3H407c-.45,0-.65.05-1,.8a97.15,97.15,0,0,0-2.9,9.3c0,.2.1.4.25.4a52.52,52.52,0,0,0,5.65-.3c.95-.15,1.4-.5,2.1-1.65.5-.7,1-.7.65.2-.2.55-.7,1.5-1,2.55a15,15,0,0,0-.55,2.4c-.1.5-.7.95-.65-.1.1-1.65-.35-2.25-1.85-2.25-2,0-4,.1-4.7.15a1.65,1.65,0,0,0-.6.5c-.6,1.55-1.85,5.85-2.2,7.35-.35,1.85-.15,2.1,2.05,2.45,1,.25.85.7-.1.7-.65,0-3.65-.15-4.65-.15-1.4,0-2.9.15-3.85.15s-.85-.55.1-.65c1.55-.3,2.3-.5,3.15-2.75,1-2.7,4.75-14.75,5.35-16.9s-.15-2.3-1.8-2.55c-1-.15-.9-.7.15-.7,1.25,0,3.15.2,4.75.2Z"/><path d="M32.09,258.51a.94.94,0,0,1,.52.89,37.72,37.72,0,0,0,.16,4c0,.52-.21.83-.32.83s-.36-.26-.47-.67a8.11,8.11,0,0,0-2.49-4.16,11.92,11.92,0,0,0-8-2.6,12.57,12.57,0,0,0-9,4.05c-2.23,2.45-4,7.08-4,12.07a19.67,19.67,0,0,0,4.79,12.58,12.38,12.38,0,0,0,8.89,3.85,11,11,0,0,0,6.19-1.46,9.32,9.32,0,0,0,4-5.09c.21-.68.31-.88.52-.88s.31.46.31.77a35.29,35.29,0,0,1-.73,4.11,1.36,1.36,0,0,1-.52.78,18.8,18.8,0,0,1-10.14,2.86,17.89,17.89,0,0,1-13.52-5.51A18.22,18.22,0,0,1,4,273.44a16.59,16.59,0,0,1,5.82-13.16A18.73,18.73,0,0,1,21.9,256,24.13,24.13,0,0,1,32.09,258.51Z"/><path d="M71.56,273.59A16.8,16.8,0,0,1,55,290.44c-9.42,0-17.11-8.06-17.11-17.57a16.08,16.08,0,0,1,6.76-13.63A17.43,17.43,0,0,1,54.71,256C63.76,256,71.56,263.87,71.56,273.59ZM46,260.65c-2.6,3.12-3.69,7.8-3.69,12a19.48,19.48,0,0,0,4,11.54c3.06,4.06,6.6,5.26,9.51,5.26a8.34,8.34,0,0,0,5.57-2.08c2.44-1.93,5.66-6.45,5.66-13.79A19.92,19.92,0,0,0,62.66,261a11.15,11.15,0,0,0-8.84-4.26C50.86,256.75,47.63,258.77,46,260.65Z"/><path d="M76,256.64c1.57,0,4.37.26,6.24.26.26,0,.47.16,1.2,1.09,3.43,4.37,16.85,19.45,21.58,24.65.11.16.31.16.31-.31,0-1.92-.15-16.22-.26-20.8,0-3.07-1.14-3.59-2.8-4-.63-.16-1-.26-1-.47s.46-.37,1-.37c.93,0,2.44.21,3.59.21,1.5,0,2.8-.21,3.38-.21s.83.11.83.32-.42.36-.89.52c-2,.67-2.13,1.76-2.34,3.12-.2,2-.31,12.89-.31,17.78,0,4.73-.1,7.8,0,10.56,0,1.09,0,1.66-.41,1.66-.21,0-.89-.78-1.77-1.92-3-3.7-16.38-19-23.4-27.2-.26-.31-.42-.21-.42.1,0,1.77-.16,18.83-.16,21.22s.16,3.49.58,4.37a3.94,3.94,0,0,0,2.6,1.61c.52.16.88.31.88.63s-.52.31-1,.31c-.93,0-2.34-.26-3.95-.26s-3.22.26-3.64.26c-.78,0-.88-.16-.88-.31s.41-.37,1-.53c1.88-.57,2.5-1,2.76-4,.21-2,.57-18.51.57-22.67,0-3.07-.47-3.43-.93-3.8a5.31,5.31,0,0,0-2.5-1c-.73-.1-1-.2-1-.46S75.14,256.64,76,256.64Z"/><path d="M135.57,256.85c2.44,0,3.38-.1,4.26-.57.21-.16.37-.21.42-.11a1.23,1.23,0,0,1,.05.68,16.28,16.28,0,0,0-.16,3.95c0,.78-.26,1.15-.41,1.15s-.37-.47-.42-.73a4.86,4.86,0,0,0-.93-2.45c-.47-.41-1.15-.62-4.79-.62-1.61,0-4.21,0-5,.1-.26.06-.32.47-.32.84,0,1.92-.1,14-.1,16.22,0,2.91.16,9.36.31,11,.21,1.77.73,2.14,2.5,2.65.62.16.88.26.88.53s-.36.36-1,.36c-1.19,0-2.81-.31-4.89-.31-2.65,0-4.21.31-5,.31-.68,0-.94-.21-.94-.47s.47-.36,1-.47c2.49-.36,2.8-1.19,3-3.58.36-5.05.36-25.75.26-26.47-.05-.47-.21-.63-.37-.63a32.74,32.74,0,0,0-3.9-.15,42.45,42.45,0,0,0-4.42.2c-1,.21-1.66.84-2.39,2.86-.26.63-.52.89-.72.89s-.21-.42-.16-.78a30.12,30.12,0,0,0,.67-4.47c.06-.42.06-.68.32-.78.1-.06.26,0,.41.2a2.84,2.84,0,0,0,1.67.52c.83.06,6,.21,11.33.21Z"/><path d="M144.3,256.69c1.25,0,2.86.21,4.37.21,2.76,0,9.83-.1,11.91-.1,1.92,0,2.65-.11,3.17-.11.21,0,.42.32.52.84s.16,2.49.36,3.53c.06.31,0,.78-.2.78s-.31-.15-.57-.73c-.89-2.18-1.88-3-2.81-3.17-1.2-.21-8.06-.21-9.73-.15-.41,0-.62.15-.62,2v11.91c0,.63.15.83.31.83h6.55c2.4,0,3-.1,3.49-.36a4.55,4.55,0,0,0,1.35-2c.15-.36.31-.57.52-.57s.26.26.26.57-.21,1.93-.31,2.76a15.41,15.41,0,0,0,.1,2.91c.16.73-.21,1-.31,1s-.26-.26-.62-1.09c-.16-.47-.53-1.46-1.31-1.66-1.19-.26-2.6-.32-9.62-.32-.36,0-.41.11-.41,1,0,2.65.15,9.93.15,10.92a2.87,2.87,0,0,0,1.36,2.34c.83.37,1.66.52,5.14.52,4.37,0,5.31-.1,6.35-1a26.9,26.9,0,0,0,1.87-2.49c.52-.68.73-.89.94-.89s.26.37.05.94c-.31,1.2-.89,3.38-1.15,3.95a1,1,0,0,1-.83.63c-5.51,0-11.39-.21-15.6-.21-1.77,0-4.68.26-5.25.26s-1-.16-1-.37.37-.31.94-.47c1.77-.26,2.81-.93,2.86-3.27.26-8.27.26-14,.26-24.18,0-3-.63-3.59-2.5-4-.52-.1-.78-.26-.78-.46S143.89,256.69,144.3,256.69Z"/><path d="M170.72,256.64c1.19.05,4.37.26,6,.26.21,0,.47.21.68.73,2.23,4.94,9.56,19.5,12.84,25.64.16.31.26.1.47-.21,3.07-5.88,9.67-18.72,10.92-21.27a43.68,43.68,0,0,0,1.56-4.21c.05-.11.26-.68.52-.68,1.46,0,4.21-.31,5.67-.31.52,0,.83.1.83.31s-.42.42-.78.47c-3.07.73-3.28,1.3-3.43,4.37-.11,1.77-.16,8-.16,10.61,0,5.66.21,10.81.31,12.48.21,3,.78,3.48,2.81,4.1.47.16.83.32.83.58s-.31.31-.93.31c-1,0-3.8-.31-5.2-.31-2.14,0-3.54.1-4.32.1-.52,0-1.09-.05-1.09-.42,0-.2.52-.41,1-.46,2.18-.57,2.55-1.41,2.7-5.72.16-2.81.16-16.75.16-19.09,0-.52-.16-.52-.26-.21-3.48,7-9.88,19.45-12.38,25-.26.62-.47.93-.78.93s-.62-.83-1.09-1.82c-2.44-5.25-9.36-19.71-11.34-23.76-.26-.42-.36-.42-.46.26-.21,3-.78,16.53-.78,18.67a13.11,13.11,0,0,0,.31,3.79c.26,1.25,1.45,1.82,2.65,2.08.57.11.88.31.88.52s-.46.42-1,.37-2.49-.26-4.36-.26-3.28.31-3.8.31c-.68,0-.94-.1-.94-.36s.21-.37.94-.53a3.9,3.9,0,0,0,2.81-1.66c.52-.78.78-2.39,1.09-5.62.31-3.06,1-14.61,1-17.94,0-3.12-.31-3.84-1.2-4.88a4.78,4.78,0,0,0-2.86-1.41c-.46-.1-.83-.26-.83-.47S170.25,256.64,170.72,256.64Z"/><path d="M214.29,256.69c.94,0,2.34-.05,3.75-.1s4.16-.36,5.46-.36c4.05,0,7.43,1.09,9.46,3.32a9.72,9.72,0,0,1,2.65,6.76c0,4.74-2.34,7.08-4.26,8.32a10.26,10.26,0,0,1-5.67,1.67,6.22,6.22,0,0,1-1.61-.21c-.31-.1-.62-.26-.62-.47s.15-.26.57-.21a5.43,5.43,0,0,0,1,.06c1.71,0,6.5-1.46,6.5-8.79a10.4,10.4,0,0,0-2.45-6.87,6.94,6.94,0,0,0-5.72-2.75,8,8,0,0,0-2.29.31c-.2.05-.41.42-.41.88v17.48c0,5.56.15,8.94.26,10.4.1,2,.78,2.54,2.34,2.75.78.16,1,.26,1,.52s-.37.37-.89.37c-1.3,0-2.8-.26-5.25-.26-1.56,0-3.17.21-3.79.21-.37,0-.89-.11-.89-.32s.21-.36.89-.47c1.55-.31,2.13-.67,2.23-2.39.11-1.19.16-7,.16-15.13,0-5-.21-11-.37-12.17-.05-1-.62-1.56-2.13-1.71-.26-.06-.83-.16-.83-.47S213.82,256.69,214.29,256.69Z"/><path d="M240.19,256.64c1.61,0,3.27.26,4.68.26,1.61,0,3.07-.21,4.26-.21.63,0,.83.11.83.26s-.31.42-.72.52c-2.13.42-2.24.73-2.39,4.32-.06.88-.11,5.67-.11,10.4,0,4.94,0,10.14.11,11.13.15,2.08.26,3.53.72,4.11.57.78,2,1.3,6.19,1.3a23.57,23.57,0,0,0,4.58-.26c1.14-.21,2.28-1.51,3.33-3.38.36-.63.62-.83.83-.83s.15.77-.11,1.45c-.15.42-1.14,3.28-1.35,3.64a1.23,1.23,0,0,1-1.09.52c-.52,0-4.47.05-7-.1s-6.35-.26-8.16-.26c-1.62,0-4,.26-4.69.26s-1.09,0-1.09-.37.47-.36.94-.41c2.23-.42,2.55-1.15,2.7-2.76.21-2.08.21-5.51.21-12.69s-.05-10.66-.15-12.43c-.16-3-.32-3.27-2.55-3.69-.63-.1-.78-.26-.78-.47S239.67,256.64,240.19,256.64Z"/><path d="M281.53,256.54a22.15,22.15,0,0,0,1.35,4.37c3.64,9.67,6.45,16.74,9.67,24.07,1.3,3.07,1.82,3.54,3.12,3.85.63.1.89.31.89.47s-.47.36-.94.36c-1,0-1.82-.15-4.52-.15-1.93,0-3.9.21-5.15.21-.57,0-.89-.11-.89-.37s.47-.42,1-.47c2.08-.31,2.4-1.19,2.34-2.34-.1-.88-1.87-5.51-3.64-10.09-.15-.36-.46-.62-.67-.62-2,.1-8.53.1-9.68.1-.26,0-.57.58-.78,1-.46,1.15-2,5-2.7,7.54-.57,2-.57,3,0,3.54a4.07,4.07,0,0,0,2.18.88c.52.16.78.37.78.52s-.46.37-1,.37c-1,0-3.12-.26-5-.26-1.3,0-2.29.26-3.53.26-.58,0-.89-.11-.89-.37s.52-.36,1-.47c2.39-.46,2.86-.93,4.84-5.3,1.51-3.22,6.08-14.61,9.1-22.36a3.66,3.66,0,0,0,.31-1.46c0-.2,0-.52.16-.57a5,5,0,0,0,1.87-2.7c.1-.21.15-.52.36-.52S281.42,256.23,281.53,256.54Zm2.08,17.11c-2.08-5.88-3.49-9.21-4.27-11-.15-.41-.26-.26-.41.11-1.25,3-3.38,8.94-4.11,11.07-.05.11-.05.47.16.47,1,.05,2.28.05,4.1.05a25.8,25.8,0,0,0,4.53-.2A.8.8,0,0,0,283.61,273.65Z"/><path d="M316.26,256.85c2.45,0,3.38-.1,4.27-.57.21-.16.36-.21.42-.11a1.23,1.23,0,0,1,.05.68,16.28,16.28,0,0,0-.16,3.95c0,.78-.26,1.15-.42,1.15s-.36-.47-.41-.73a4.86,4.86,0,0,0-.94-2.45c-.46-.41-1.14-.62-4.78-.62-1.61,0-4.21,0-5.05.1-.26.06-.31.47-.31.84,0,1.92-.1,14-.1,16.22-.05,2.91.15,9.36.31,11,.21,1.77.73,2.14,2.5,2.65.62.16.88.26.88.53s-.36.36-1,.36c-1.19,0-2.81-.31-4.89-.31-2.65,0-4.21.31-5,.31s-.94-.21-.94-.47.47-.36,1-.47c2.5-.36,2.81-1.19,3-3.58.36-5.05.36-25.75.26-26.47-.06-.47-.21-.63-.37-.63a32.9,32.9,0,0,0-3.9-.15,42.3,42.3,0,0,0-4.42.2c-1,.21-1.66.84-2.39,2.86-.26.63-.52.89-.73.89s-.21-.42-.15-.78a30.12,30.12,0,0,0,.67-4.47c.05-.42.05-.68.31-.78s.26,0,.42.2a2.83,2.83,0,0,0,1.66.52c.84.06,6,.21,11.34.21Z"/><path d="M324.84,256.69c1.72,0,2.86.21,4.42.21,1.72,0,3.33-.21,4.47-.21.47,0,.79.11.79.26s-.21.42-.79.47c-2.08.31-2.18,1.09-2.28,3.23-.16,2.6-.11,8.63-.11,11.85,0,7.65.11,12,.21,13.58.16,2,.47,2.34,2,2.7.73.15.88.31.88.57s-.36.31-1,.31c-.83,0-2.13-.15-3.64-.15-2.6,0-4.11.26-5.09.26-.47,0-.83-.11-.83-.37s.26-.31,1.14-.52c1.92-.41,2.23-1.25,2.29-4.37s0-17.36,0-19.81a44.38,44.38,0,0,0-.21-5c-.21-1.72-.73-1.92-2.5-2.34-.36-.1-.57-.26-.57-.42S324.38,256.69,324.84,256.69Z"/><path d="M336.75,256.69c1.2,0,3.38.21,4.58.21,1.66,0,3.9-.21,4.83-.21.78,0,1,.21,1,.32,0,.31-.47.46-1,.57-1.25.15-1.82.83-1.82,1.45a8,8,0,0,0,.62,2.45c.94,2.75,7.29,19.19,8.48,21.63.05.16.21.31.26.11.83-1.72,6.92-17.27,7.8-19.82a15,15,0,0,0,1-4c0-1.2-1-1.56-2.55-1.93-.52-.1-.88-.26-.88-.47s.26-.31,1-.31c1.14,0,3.22.26,4.32.26s2.6-.21,3.43-.21c.67,0,.88.06.88.21s-.21.42-1,.63c-2,.52-2.75,1.5-4.37,5.14-1,2.19-4,9.68-8.94,21.64-1.2,3-1.87,4.88-2.08,5.66-.1.37-.31.63-.42.63-.31,0-.41-.42-.62-1.09-1.72-5.15-9.62-25.17-11.6-29.64a3.45,3.45,0,0,0-2.91-2.34c-.62-.11-1-.32-1-.52S336.28,256.69,336.75,256.69Z"/><path d="M370.6,256.69c1.25,0,2.86.21,4.37.21,2.76,0,9.83-.1,11.91-.1,1.92,0,2.65-.11,3.17-.11.21,0,.42.32.52.84s.16,2.49.37,3.53c.05.31,0,.78-.21.78s-.32-.15-.58-.73c-.88-2.18-1.87-3-2.8-3.17-1.2-.21-8.06-.21-9.73-.15-.41,0-.62.15-.62,2v11.91c0,.63.15.83.31.83h6.55c2.39,0,3-.1,3.49-.36a4.55,4.55,0,0,0,1.35-2c.16-.36.31-.57.52-.57s.26.26.26.57-.21,1.93-.31,2.76a15.41,15.41,0,0,0,.1,2.91c.16.73-.21,1-.31,1s-.26-.26-.63-1.09c-.15-.47-.52-1.46-1.29-1.66-1.2-.26-2.61-.32-9.63-.32-.36,0-.41.11-.41,1,0,2.65.15,9.93.15,10.92a2.87,2.87,0,0,0,1.36,2.34c.83.37,1.66.52,5.14.52,4.37,0,5.31-.1,6.35-1a26.9,26.9,0,0,0,1.87-2.49c.52-.68.73-.89.94-.89s.26.37.05.94c-.31,1.2-.89,3.38-1.15,3.95a1,1,0,0,1-.83.63c-5.51,0-11.39-.21-15.6-.21-1.77,0-4.68.26-5.25.26s-1-.16-1-.37.37-.31.94-.47c1.77-.26,2.81-.93,2.86-3.27.26-8.27.26-14,.26-24.18,0-3-.63-3.59-2.5-4-.52-.1-.78-.26-.78-.46S370.19,256.69,370.6,256.69Z"/><path d="M403.15,256.64c1.62,0,3.28.26,4.68.26,1.62,0,3.07-.21,4.27-.21.62,0,.83.11.83.26s-.31.42-.73.52c-2.13.42-2.23.73-2.39,4.32-.05.88-.1,5.67-.1,10.4,0,4.94.05,10.14.1,11.13.16,2.08.26,3.53.73,4.11.57.78,2,1.3,6.19,1.3a23.38,23.38,0,0,0,4.57-.26c1.15-.21,2.29-1.51,3.33-3.38.36-.63.62-.83.83-.83s.16.77-.1,1.45c-.16.42-1.15,3.28-1.35,3.64a1.23,1.23,0,0,1-1.1.52c-.52,0-4.47.05-7-.1s-6.34-.26-8.16-.26c-1.61,0-4,.26-4.68.26s-1.09,0-1.09-.37.47-.36.93-.41c2.24-.42,2.55-1.15,2.71-2.76.21-2.08.21-5.51.21-12.69s-.06-10.66-.16-12.43c-.16-3-.31-3.27-2.55-3.69-.62-.1-.78-.26-.78-.47S402.63,256.64,403.15,256.64Z"/><path d="M428.68,256.69c1.72,0,2.86.21,4.43.21s3.32-.21,4.47-.21c.46,0,.78.11.78.26s-.21.42-.78.47c-2.08.31-2.19,1.09-2.29,3.23-.16,2.6-.1,8.63-.1,11.85,0,7.65.1,12,.2,13.58.16,2,.47,2.34,2,2.7.73.15.88.31.88.57s-.36.31-1,.31c-.84,0-2.14-.15-3.65-.15-2.59,0-4.1.26-5.09.26-.47,0-.83-.11-.83-.37s.26-.31,1.14-.52c1.92-.41,2.24-1.25,2.29-4.37s.05-17.36.05-19.81a42,42,0,0,0-.21-5c-.21-1.72-.73-1.92-2.49-2.34-.37-.1-.58-.26-.58-.42S428.22,256.69,428.68,256.69Z"/><path d="M462.22,256.75c1.1,0,1.46.26,1.46.62.11.73.26,3,.36,3.64s0,1-.25,1-.37-.37-.63-1a4.22,4.22,0,0,0-3.9-3c-1.66-.15-3.9-.15-8.63-.15-.36,0-.73.67-.73.93,0,1.46-.16,7.44,0,13.42a.62.62,0,0,0,.47.62c5.3,0,7.8-.05,8.63-.15s1.46-.26,2.24-2c.26-.52.41-.73.57-.73s.31.26.26.78-.26,2.13-.26,3.23a24.55,24.55,0,0,0,.2,2.49c0,.68-.1.89-.36.89s-.41-.42-.73-1.15c-.41-1.14-.93-1.66-1.56-1.82-.83-.15-1.66-.26-9-.26a1,1,0,0,0-.52.68c-.06.93.05,9.05.15,11.39.06,2,.37,2.29,2.76,2.86.41.1.73.26.73.47s-.57.36-1.09.36c-.73,0-3-.31-5.1-.31s-3.28.21-4,.21c-.46,0-.83-.11-.83-.37s.26-.36.94-.52c2-.41,2.23-.83,2.34-2.75.16-1.72.16-8.17.16-13.89,0-5.51,0-8.68-.16-11.86-.11-1.87-.26-2.34-2.13-2.8-.47-.11-.84-.26-.84-.52s.32-.32.78-.32c.63,0,3.49.21,5.78.21C454.74,256.9,460.25,256.75,462.22,256.75Z"/><path d="M467.58,256.69c1.25,0,2.86.21,4.37.21,2.76,0,9.83-.1,11.91-.1,1.92,0,2.65-.11,3.17-.11.21,0,.42.32.52.84s.16,2.49.36,3.53c0,.31,0,.78-.2.78s-.32-.15-.58-.73c-.88-2.18-1.87-3-2.81-3.17-1.19-.21-8.05-.21-9.72-.15-.41,0-.62.15-.62,2v11.91c0,.63.15.83.31.83h6.55c2.39,0,3-.1,3.48-.36a4.46,4.46,0,0,0,1.36-2c.15-.36.31-.57.52-.57s.26.26.26.57-.21,1.93-.32,2.76a16.13,16.13,0,0,0,.11,2.91c.15.73-.21,1-.31,1s-.26-.26-.63-1.09c-.15-.47-.52-1.46-1.3-1.66-1.19-.26-2.6-.32-9.62-.32-.36,0-.41.11-.41,1,0,2.65.15,9.93.15,10.92a2.88,2.88,0,0,0,1.35,2.34c.84.37,1.67.52,5.15.52,4.37,0,5.31-.1,6.35-1a26.9,26.9,0,0,0,1.87-2.49c.52-.68.73-.89.94-.89s.25.37,0,.94c-.31,1.2-.89,3.38-1.15,3.95a1,1,0,0,1-.83.63c-5.51,0-11.39-.21-15.6-.21-1.77,0-4.68.26-5.25.26s-1-.16-1-.37.36-.31.94-.47c1.76-.26,2.8-.93,2.86-3.27.26-8.27.26-14,.26-24.18,0-3-.63-3.59-2.5-4-.52-.1-.78-.26-.78-.46S467.16,256.69,467.58,256.69Z"/><path d="M236.15,118.18c-5.57,0-10.32-1.66-13.54-4.76-3.75-3.61-3.47-7.49-3.17-11.6.36-5,.78-10.6-5.8-17.65-1-1-2-2.16-3-3.3a89.5,89.5,0,0,0-15.81-14.69c-7.61-5.33-10.91-9.17-10.1-11.74.43-1.36,2-2.18,4.15-2.19h0c2.95,0,20.81,6.63,25.51,8.4,1.93-7.44,14-53.3,19.63-58.54a2.42,2.42,0,0,1,2.54-.41,6.2,6.2,0,0,1,3.77,5.17c.56,3.94-1.21,13.57-2.69,19-1.46,5.68-3.08,18.59-2.77,20.64.3-.08,1.5-.83,2.5-3.94,1.37-4.23,11.08-31.07,12.24-33.22,1.44-2.48,4.79-4.47,7.7-3.43a4.61,4.61,0,0,1,2.88,2.21c.85,1.7.6,4.37-.83,8.64S255.26,29,253.14,35.35c-1.49,4.48-2.73,8.21-3.17,9.49a28.69,28.69,0,0,0-1.1,5c1.88-2.51,5.69-8.27,7.71-11.33l1.14-1.72c2.41-3.62,13.12-18.13,15.65-20.22a5,5,0,0,1,4.31-1.22,4.45,4.45,0,0,1,3,2.54c1.57,3-6.06,15.44-10.31,21.09-6,7.92-10.13,14.11-10.74,15.54a6.27,6.27,0,0,0,1.8-1C263.47,52,278,41.35,280,40.27c1.42-.84,3.65-1.53,5.17-.67a2.91,2.91,0,0,1,1.38,2.76c0,2.49-3.73,6.24-7.69,10.2-1.75,1.76-3.41,3.42-4.65,4.88-3.36,3.72-7.66,10-11.45,15.51-2.21,3.22-4.13,6-5.55,7.85h0c-3.7,4.77-2.87,7.86-1.81,11.77.2.74.41,1.49.59,2.29,1.4,6.1,1.16,14.69-4.13,18.83-3.1,2.32-8.44,4-13.63,4.42C237.53,118.16,236.83,118.18,236.15,118.18ZM188.87,54h0c-1.09,0-2.28.3-2.48,1s-.08,3.1,9.44,9.78a91.57,91.57,0,0,1,16.11,15c1,1.13,2,2.23,3,3.28,7.1,7.61,6.64,13.91,6.27,19-.29,4-.53,7.17,2.64,10.21,7.36,7.11,21.65,4.12,27,.14,4.62-3.62,4.77-11.45,3.48-17-.17-.77-.37-1.51-.57-2.22-1.09-4-2.12-7.85,2.12-13.3,1.4-1.81,3.3-4.57,5.5-7.77,3.82-5.57,8.15-11.88,11.57-15.67,1.27-1.5,2.95-3.18,4.73-5,3.2-3.21,7.19-7.2,7.18-9,0-1-.37-1.18-.5-1.25-.67-.38-2.15-.09-3.44.67-1.83,1-16,11.27-18.37,13.09-1.8,1.37-3.27,1.77-4.14,1.14a1.6,1.6,0,0,1-.42-2c.62-1.76,6.15-9.62,11-16.13,6.45-8.57,10.82-17.93,10.14-19.27a2.75,2.75,0,0,0-1.84-1.59,3.32,3.32,0,0,0-2.81.86c-2.25,1.87-12.65,15.85-15.3,19.84L258,39.47c-3.9,5.89-7.79,11.72-8.87,12.74a1.16,1.16,0,0,1-1.49.24c-1.65-1.05.61-8.09.63-8.16.44-1.29,1.68-5,3.17-9.49,2.12-6.35,4.73-14.19,6.21-18.58,1.23-3.7,1.54-6.09.93-7.31a2.85,2.85,0,0,0-1.89-1.33c-2-.72-4.54.81-5.6,2.63-1.08,2-10.78,28.82-12.1,32.9-.95,2.93-2.41,4.85-3.9,5.12a1.71,1.71,0,0,1-1.69-.62c-1.21-1.53,1.43-18,2.5-22.19,1.63-6,3.12-15,2.65-18.31A4.53,4.53,0,0,0,236,3.36a.81.81,0,0,0-.78,0C230.51,7.74,219.63,47.19,215.83,62l-.24.95-.91-.34C205.5,59.16,191.06,54,188.87,54Zm70.68.83Z"/><path d="M241.21,142.88c-25.4,0-48.19-23.41-48.42-23.65l-.45-.47.32-.56a95.94,95.94,0,0,1,12.59-16.69c10.4-11,21.5-16.79,32.1-16.79,13.33,0,25.81,7.51,33.93,13.81a101.7,101.7,0,0,1,14.54,13.75l.4.49-.34.54a87.11,87.11,0,0,1-12.61,14.75C262.88,137.75,251.79,142.88,241.21,142.88Zm-46.69-24.39a97.57,97.57,0,0,0,13.82,11.12c7.9,5.25,20,11.51,32.87,11.51s23.85-7.8,30.87-14.34a86.07,86.07,0,0,0,12-13.88c-3.18-3.65-23.94-26.43-46.7-26.43S197.12,114.14,194.52,118.49Z"/></svg>